<svg height="460pt" viewBox="-10 0 460 460" width="460pt" xmlns="http://www.w3.org/2000/svg"><path d="m400 68h-360c-15.601562 0-28-12.398438-28-28s12.398438-28 28-28h360c15.601562 0 28 12.398438 28 28s-12.398438 28-28 28zm0 0" fill="#444b54"/><path d="m360 40h-280v368l40 40 40-40 40 40 40-40 40 40 40-40 40 40zm0 0" fill="#fff"/><path d="m80 420c-6.800781 0-12-5.199219-12-12v-368c0-6.800781 5.199219-12 12-12s12 5.199219 12 12v368c0 6.800781-5.199219 12-12 12zm0 0" fill="#444b54"/><path d="m360 460c-3.199219 0-6-1.199219-8.398438-3.601562l-31.601562-31.597657-31.601562 31.597657c-4.796876 4.800781-12.398438 4.800781-16.796876 0l-31.601562-31.597657-31.601562 31.597657c-4.796876 4.800781-12.398438 4.800781-16.796876 0l-31.601562-31.597657-31.601562 31.597657c-4.796876 4.800781-12.398438 4.800781-16.796876 0-4.800781-4.796876-4.800781-12.398438 0-16.796876l40-40c4.796876-4.800781 12.398438-4.800781 16.796876 0l31.601562 31.597657 31.601562-31.597657c4.796876-4.800781 12.398438-4.800781 16.796876 0l31.601562 31.597657 31.601562-31.597657c4.796876-4.800781 12.398438-4.800781 16.796876 0l19.601562 19.597657v-379.199219c0-6.800781 5.199219-12 12-12s12 5.199219 12 12v408c0 4.800781-2.800781 9.199219-7.601562 11.199219-1.199219.402343-2.796876.800781-4.398438.800781zm0 0" fill="#444b54"/><g fill="#fcca3d"><path d="m300 128h-160c-6.800781 0-12-5.199219-12-12s5.199219-12 12-12h160c6.800781 0 12 5.199219 12 12s-5.199219 12-12 12zm0 0"/><path d="m300 188h-160c-6.800781 0-12-5.199219-12-12s5.199219-12 12-12h160c6.800781 0 12 5.199219 12 12s-5.199219 12-12 12zm0 0"/><path d="m300 248h-160c-6.800781 0-12-5.199219-12-12s5.199219-12 12-12h160c6.800781 0 12 5.199219 12 12s-5.199219 12-12 12zm0 0"/><path d="m260 308h-120c-6.800781 0-12-5.199219-12-12s5.199219-12 12-12h120c6.800781 0 12 5.199219 12 12s-5.199219 12-12 12zm0 0"/><path d="m300 308c-3.199219 0-6.398438-1.199219-8.398438-3.601562-.402343-.398438-1.203124-1.199219-1.601562-2-.398438-.796876-.800781-1.199219-1.199219-2-.402343-.796876-.402343-1.597657-.800781-2.398438 0-.800781-.398438-1.601562-.398438-2.398438 0-3.203124 1.199219-6.402343 3.597657-8.402343.402343-.398438 1.199219-1.199219 1.601562-1.597657.800781-.402343 1.199219-.800781 2-1.203124.800781-.398438 1.597657-.398438 2.398438-.796876 1.601562-.402343 3.199219-.402343 4.800781 0 .800781 0 1.601562.398438 2.398438.796876.800781.402343 1.601562.800781 2 1.203124.800781.398438 1.203124.796876 1.601562 1.597657 2.398438 2.402343 3.601562 5.199219 3.601562 8.402343 0 .796876 0 1.597657-.402343 2.398438 0 .800781-.398438 1.601562-.800781 2.398438-.398438.800781-.796876 1.601562-1.199219 2-.398438.800781-.800781 1.203124-1.597657 2-1.203124 2.402343-4.402343 3.601562-7.601562 3.601562zm0 0"/></g><path d="m400 80h-40.800781c-6.800781 0-8-5.199219-8-12s1.199219-12 8-12h40.800781c8.800781 0 16-7.199219 16-16s-7.199219-16-16-16h-360c-8.800781 0-16 7.199219-16 16s7.199219 16 16 16h39.199219c6.800781 0 8 5.199219 8 12s-1.199219 12-8 12h-39.199219c-22 0-40-18-40-40s18-40 40-40h360c22 0 40 18 40 40s-18 40-40 40zm0 0" fill="#444b54"/></svg>