<?xml version="1.0" encoding="UTF-8"?> <svg xmlns="http://www.w3.org/2000/svg" width="10" height="13" viewBox="0 0 10 13" fill="none"><path d="M5 2.2779C4.26148 2.2779 3.63273 2.52939 3.11377 3.03237C2.59481 3.53534 2.33533 4.13988 2.33533 4.84598C2.33533 5.56176 2.59481 6.17113 3.11377 6.67411C3.63273 7.17708 4.26148 7.42857 5 7.42857C5.73852 7.42857 6.36727 7.17708 6.88623 6.67411C7.40519 6.17113 7.66467 5.56176 7.66467 4.84598C7.66467 4.13988 7.40519 3.53534 6.88623 3.03237C6.36727 2.52939 5.73852 2.2779 5 2.2779ZM5 6.39844C4.56088 6.39844 4.18164 6.24851 3.86228 5.94866C3.55289 5.64881 3.3982 5.28125 3.3982 4.84598C3.3982 4.42039 3.55289 4.05766 3.86228 3.75781C4.18164 3.45796 4.56088 3.30804 5 3.30804C5.43912 3.30804 5.81337 3.45796 6.12275 3.75781C6.44212 4.05766 6.6018 4.42039 6.6018 4.84598C6.6018 5.27158 6.44212 5.63914 6.12275 5.94866C5.81337 6.24851 5.43912 6.39844 5 6.39844ZM5 0C4.31138 0 3.66267 0.125744 3.05389 0.377232C2.44511 0.638393 1.91118 0.986607 1.4521 1.42188C1.00299 1.85714 0.648703 2.36979 0.389222 2.95982C0.129741 3.54985 0 4.17857 0 4.84598C0 5.4747 0.214571 6.21949 0.643713 7.08036C1.08283 7.93155 1.57186 8.75856 2.11078 9.56138C2.65968 10.3642 3.17864 11.0751 3.66766 11.6942C4.16667 12.3036 4.47605 12.676 4.59581 12.8114C4.63573 12.8694 4.69062 12.9129 4.76048 12.942C4.84032 12.9807 4.92016 13 5 13C5.07984 13 5.15469 12.9807 5.22455 12.942C5.29441 12.9129 5.35429 12.8694 5.40419 12.8114C5.52395 12.676 5.83333 12.3036 6.33234 11.6942C6.82136 11.0751 7.33533 10.3642 7.87425 9.56138C8.42315 8.75856 8.91717 7.93155 9.35629 7.08036C9.78543 6.21949 10 5.4747 10 4.84598C10 4.17857 9.87026 3.54985 9.61078 2.95982C9.3513 2.36979 8.99202 1.85714 8.53293 1.42188C8.08383 0.986607 7.55489 0.638393 6.94611 0.377232C6.33733 0.125744 5.68862 0 5 0ZM5 11.6652C4.6507 11.2396 4.2515 10.7221 3.8024 10.1127C3.34331 9.49368 2.90918 8.86496 2.5 8.22656C2.1008 7.58817 1.76148 6.96912 1.48204 6.36942C1.20259 5.76004 1.06287 5.25223 1.06287 4.84598C1.06287 4.32366 1.16766 3.83036 1.37725 3.36607C1.57685 2.90179 1.85629 2.50037 2.21557 2.16183C2.57485 1.81362 2.99401 1.53795 3.47305 1.33482C3.9521 1.1317 4.46108 1.03013 5 1.03013C5.53892 1.03013 6.0479 1.1317 6.52695 1.33482C7.00599 1.53795 7.42515 1.81362 7.78443 2.16183C8.14371 2.50037 8.42315 2.90179 8.62276 3.36607C8.83234 3.83036 8.93713 4.32366 8.93713 4.84598C8.93713 5.25223 8.79741 5.76004 8.51796 6.36942C8.23852 6.96912 7.89421 7.58817 7.48503 8.22656C7.08583 8.86496 6.65669 9.49368 6.19761 10.1127C5.7485 10.7221 5.3493 11.2396 5 11.6652Z" fill="#777777"></path></svg> 